<?xml version="1.0" encoding="UTF-8" standalone="no"?>
<svg
   xmlns:osb="http://www.openswatchbook.org/uri/2009/osb"
   xmlns:dc="http://purl.org/dc/elements/1.1/"
   xmlns:cc="http://creativecommons.org/ns#"
   xmlns:rdf="http://www.w3.org/1999/02/22-rdf-syntax-ns#"
   xmlns:svg="http://www.w3.org/2000/svg"
   xmlns="http://www.w3.org/2000/svg"
   xmlns:sodipodi="http://sodipodi.sourceforge.net/DTD/sodipodi-0.dtd"
   xmlns:inkscape="http://www.inkscape.org/namespaces/inkscape"
   width="16"
   version="1.1"
   id="svg7384"
   height="16"
   sodipodi:docname="org.gnome.Podcasts-symbolic.svg"
   inkscape:version="0.92.3 (2405546, 2018-03-11)">
  <sodipodi:namedview
     pagecolor="#ffffff"
     bordercolor="#666666"
     borderopacity="1"
     objecttolerance="10"
     gridtolerance="10"
     guidetolerance="10"
     inkscape:pageopacity="0"
     inkscape:pageshadow="2"
     inkscape:window-width="1920"
     inkscape:window-height="1016"
     id="namedview16"
     showgrid="false"
     inkscape:zoom="14.75"
     inkscape:cx="-14.813559"
     inkscape:cy="6.9152542"
     inkscape:window-x="1920"
     inkscape:window-y="27"
     inkscape:window-maximized="1"
     inkscape:current-layer="g876" />
  <metadata
     id="metadata90">
    <rdf:RDF>
      <cc:Work
         rdf:about="">
        <dc:format>image/svg+xml</dc:format>
        <dc:type
           rdf:resource="http://purl.org/dc/dcmitype/StillImage" />
        <dc:title>Gnome Symbolic Icon Theme</dc:title>
      </cc:Work>
    </rdf:RDF>
  </metadata>
  <title
     id="title9167">Gnome Symbolic Icon Theme</title>
  <defs
     id="defs7386">
    <linearGradient
       osb:paint="solid"
       id="linearGradient7212">
      <stop
         style="stop-color:#000000;stop-opacity:1;"
         offset="0"
         id="stop7214" />
    </linearGradient>
  </defs>
  <g
     transform="translate(-323.0002,125)"
     style="display:inline"
     id="layer9">
    <g
       transform="translate(311.00017,-893)"
       id="g876"
       style="enable-background:new">
      <path
         style="display:inline;opacity:1;vector-effect:none;fill:#bebebe;fill-opacity:1;stroke:none;stroke-width:2.61861467;stroke-linecap:butt;stroke-linejoin:round;stroke-miterlimit:4;stroke-dasharray:none;stroke-dashoffset:0;stroke-opacity:0.43700789"
         d="M 1 3 C 0.446 3 0 3.446 0 4 L 0 13 C 0 13.554 0.446 14 1 14 L 15 14 C 15.554 14 16 13.554 16 13 L 16 4 C 16 3.446 15.554 3 15 3 L 1 3 z M 1 6 L 15 6 L 15 10 L 1 10 L 1 6 z M 4 7 A 1 1 0 0 0 3 8 A 1 1 0 0 0 4 9 A 1 1 0 0 0 5 8 A 1 1 0 0 0 4 7 z M 6 7 L 6 9 L 10 9 L 10 7 L 6 7 z M 12 7 A 1 1 0 0 0 11 8 A 1 1 0 0 0 12 9 A 1 1 0 0 0 13 8 A 1 1 0 0 0 12 7 z M 5 11 L 11 11 L 12 13 L 4 13 L 5 11 z "
         transform="translate(12.00003,768)"
         id="rect2029" />
    </g>
  </g>
</svg>