<?xml version="1.0" encoding="UTF-8" standalone="no"?>
<svg
   xmlns:dc="http://purl.org/dc/elements/1.1/"
   xmlns:cc="http://creativecommons.org/ns#"
   xmlns:rdf="http://www.w3.org/1999/02/22-rdf-syntax-ns#"
   xmlns:svg="http://www.w3.org/2000/svg"
   xmlns="http://www.w3.org/2000/svg"
   xmlns:sodipodi="http://sodipodi.sourceforge.net/DTD/sodipodi-0.dtd"
   xmlns:inkscape="http://www.inkscape.org/namespaces/inkscape"
   width="32"
   height="32"
   viewBox="0 0 8.4666665 8.4666669"
   version="1.1"
   id="svg2916"
   sodipodi:docname="skip-forward-large-symbolic.svg"
   inkscape:version="0.92.4 (unknown)">
  <sodipodi:namedview
     pagecolor="#ffffff"
     bordercolor="#666666"
     borderopacity="1"
     objecttolerance="10"
     gridtolerance="10"
     guidetolerance="10"
     inkscape:pageopacity="0"
     inkscape:pageshadow="2"
     inkscape:window-width="1366"
     inkscape:window-height="731"
     id="namedview11"
     showgrid="false"
     inkscape:zoom="7.375"
     inkscape:cx="16"
     inkscape:cy="16"
     inkscape:window-x="0"
     inkscape:window-y="0"
     inkscape:window-maximized="1"
     inkscape:current-layer="svg2916" />
  <defs
     id="defs2910" />
  <metadata
     id="metadata2913">
    <rdf:RDF>
      <cc:Work
         rdf:about="">
        <dc:format>image/svg+xml</dc:format>
        <dc:type
           rdf:resource="http://purl.org/dc/dcmitype/StillImage" />
        <dc:title />
      </cc:Work>
    </rdf:RDF>
  </metadata>
  <path
     inkscape:connector-curvature="0"
     d="m 2.6458333,5.8208334 h 1.400175 v -0.4699 h -0.42545 V 3.6173835 h -0.327025 l -0.758825,0.4381499 0.206375,0.3937 0.3302,-0.17145 v 1.07315 h -0.42545 z"
     style="font-style:normal;font-variant:normal;font-weight:800;font-stretch:normal;font-size:3.17499995px;line-height:1.25;font-family:Cantarell;-inkscape-font-specification:'Cantarell Ultra-Bold';text-align:end;letter-spacing:0px;word-spacing:0px;text-anchor:end;fill:#2e3436;fill-opacity:1;stroke:none;stroke-width:0.26458335"
     id="path5132" />
  <path
     inkscape:connector-curvature="0"
     d="m 5.0778791,5.8525834 c 0.5588,0 0.936625,-0.4572 0.936625,-1.146175 0,-0.6731 -0.371475,-1.1207749 -0.92075,-1.1207749 -0.561975,0 -0.9398,0.4571999 -0.9398,1.1429999 0,0.6731 0.371475,1.12395 0.923925,1.12395 z m 0.0127,-0.4699 c -0.225425,0 -0.371475,-0.269875 -0.371475,-0.6731 0,-0.3937 0.14605,-0.65405 0.36195,-0.65405 0.219075,0 0.3683,0.269875 0.3683,0.676275 0,0.390525 -0.14605,0.650875 -0.358775,0.650875 z"
     style="font-style:normal;font-variant:normal;font-weight:800;font-stretch:normal;font-size:3.17499995px;line-height:1.25;font-family:Cantarell;-inkscape-font-specification:'Cantarell Ultra-Bold';text-align:end;letter-spacing:0px;word-spacing:0px;text-anchor:end;fill:#2e3436;fill-opacity:1;stroke:none;stroke-width:0.26458335"
     id="path5134" />
  <path
     style="color:#000000;font-style:normal;font-variant:normal;font-weight:normal;font-stretch:normal;font-size:medium;line-height:normal;font-family:sans-serif;font-variant-ligatures:normal;font-variant-position:normal;font-variant-caps:normal;font-variant-numeric:normal;font-variant-alternates:normal;font-feature-settings:normal;text-indent:0;text-align:start;text-decoration:none;text-decoration-line:none;text-decoration-style:solid;text-decoration-color:#000000;letter-spacing:normal;word-spacing:normal;text-transform:none;writing-mode:lr-tb;direction:ltr;text-orientation:mixed;dominant-baseline:auto;baseline-shift:baseline;text-anchor:start;white-space:normal;shape-padding:0;clip-rule:nonzero;display:inline;overflow:visible;visibility:visible;opacity:1;isolation:auto;mix-blend-mode:normal;color-interpolation:sRGB;color-interpolation-filters:linearRGB;solid-color:#000000;solid-opacity:1;vector-effect:none;fill:#2e3436;fill-opacity:1;fill-rule:nonzero;stroke:none;stroke-width:0.52916664;stroke-linecap:round;stroke-linejoin:miter;stroke-miterlimit:4;stroke-dasharray:none;stroke-dashoffset:0;stroke-opacity:1;color-rendering:auto;image-rendering:auto;shape-rendering:auto;text-rendering:auto;enable-background:accumulate"
     d="M 4.2324219,1.3222656 C 2.9490163,1.3222641 1.7899699,2.0974925 1.2988281,3.2832031 0.80768607,4.4689192 1.080772,5.836633 1.9882812,6.7441406 c 0.9075061,0.9075067 2.2732701,1.1786386 3.4589844,0.6875 1.1857163,-0.4911397 1.96094,-1.6501837 1.9609375,-2.9335937 a 0.26464845,0.26464845 0 1 0 -0.5292969,0 C 6.8789083,5.5689483 6.2354777,6.5335432 5.2460938,6.9433594 4.2567114,7.3531746 3.1185682,7.1263812 2.3613281,6.3691406 1.6040853,5.6118992 1.3792443,4.4757119 1.7890625,3.4863281 2.1988804,2.4969489 3.1615242,1.8515612 4.2324219,1.8515625 a 0.26464845,0.26464845 0 1 0 0,-0.5292969 z"
     id="path5156"
     inkscape:connector-curvature="0" />
  <path
     inkscape:connector-curvature="0"
     style="color:#000000;font-style:normal;font-variant:normal;font-weight:normal;font-stretch:normal;font-size:medium;line-height:normal;font-family:sans-serif;font-variant-ligatures:normal;font-variant-position:normal;font-variant-caps:normal;font-variant-numeric:normal;font-variant-alternates:normal;font-feature-settings:normal;text-indent:0;text-align:start;text-decoration:none;text-decoration-line:none;text-decoration-style:solid;text-decoration-color:#000000;letter-spacing:normal;word-spacing:normal;text-transform:none;writing-mode:lr-tb;direction:ltr;text-orientation:mixed;dominant-baseline:auto;baseline-shift:baseline;text-anchor:start;white-space:normal;shape-padding:0;clip-rule:nonzero;display:inline;overflow:visible;visibility:visible;opacity:1;isolation:auto;mix-blend-mode:normal;color-interpolation:sRGB;color-interpolation-filters:linearRGB;solid-color:#000000;solid-opacity:1;vector-effect:none;fill:#2e3436;fill-opacity:1;fill-rule:evenodd;stroke:none;stroke-width:0.52916664;stroke-linecap:butt;stroke-linejoin:round;stroke-miterlimit:4;stroke-dasharray:none;stroke-dashoffset:0;stroke-opacity:1;color-rendering:auto;image-rendering:auto;shape-rendering:auto;text-rendering:auto;enable-background:accumulate"
     d="M 4.2327462,0.794 V 1.05858 2.11691 2.3815 h 0.2645833 c 0.052234,-1e-5 0.1033013,-0.0155 0.1467618,-0.0444 l 0.79375,-0.52916 c 0.157054,-0.10475 0.157054,-0.33554 0,-0.44028 l -0.79375,-0.52917 c -0.043461,-0.029 -0.094528,-0.0444 -0.1467618,-0.0444 h -0.0031 z"
     id="path5158" />
</svg>
