<?xml version="1.0" encoding="UTF-8" standalone="no"?>
<svg
   xmlns:dc="http://purl.org/dc/elements/1.1/"
   xmlns:cc="http://creativecommons.org/ns#"
   xmlns:rdf="http://www.w3.org/1999/02/22-rdf-syntax-ns#"
   xmlns:svg="http://www.w3.org/2000/svg"
   xmlns="http://www.w3.org/2000/svg"
   xmlns:sodipodi="http://sodipodi.sourceforge.net/DTD/sodipodi-0.dtd"
   xmlns:inkscape="http://www.inkscape.org/namespaces/inkscape"
   width="32"
   height="32"
   viewBox="0 0 8.4666665 8.4666669"
   version="1.1"
   id="svg2916"
   sodipodi:docname="skip-back-large-symbolic.svg"
   inkscape:version="0.92.4 (unknown)">
  <sodipodi:namedview
     pagecolor="#ffffff"
     bordercolor="#666666"
     borderopacity="1"
     objecttolerance="10"
     gridtolerance="10"
     guidetolerance="10"
     inkscape:pageopacity="0"
     inkscape:pageshadow="2"
     inkscape:window-width="1366"
     inkscape:window-height="731"
     id="namedview11"
     showgrid="false"
     inkscape:zoom="7.375"
     inkscape:cx="16"
     inkscape:cy="16"
     inkscape:window-x="0"
     inkscape:window-y="0"
     inkscape:window-maximized="1"
     inkscape:current-layer="svg2916" />
  <defs
     id="defs2910" />
  <metadata
     id="metadata2913">
    <rdf:RDF>
      <cc:Work
         rdf:about="">
        <dc:format>image/svg+xml</dc:format>
        <dc:type
           rdf:resource="http://purl.org/dc/dcmitype/StillImage" />
        <dc:title />
      </cc:Work>
    </rdf:RDF>
  </metadata>
  <path
     style="color:#000000;font-style:normal;font-variant:normal;font-weight:normal;font-stretch:normal;font-size:medium;line-height:normal;font-family:sans-serif;font-variant-ligatures:normal;font-variant-position:normal;font-variant-caps:normal;font-variant-numeric:normal;font-variant-alternates:normal;font-feature-settings:normal;text-indent:0;text-align:start;text-decoration:none;text-decoration-line:none;text-decoration-style:solid;text-decoration-color:#000000;letter-spacing:normal;word-spacing:normal;text-transform:none;writing-mode:lr-tb;direction:ltr;text-orientation:mixed;dominant-baseline:auto;baseline-shift:baseline;text-anchor:start;white-space:normal;shape-padding:0;clip-rule:nonzero;display:inline;overflow:visible;visibility:visible;opacity:1;isolation:auto;mix-blend-mode:normal;color-interpolation:sRGB;color-interpolation-filters:linearRGB;solid-color:#000000;solid-opacity:1;vector-effect:none;fill:#2e3436;fill-opacity:1;fill-rule:nonzero;stroke:none;stroke-width:0.52916664;stroke-linecap:round;stroke-linejoin:miter;stroke-miterlimit:4;stroke-dasharray:none;stroke-dashoffset:0;stroke-opacity:1;color-rendering:auto;image-rendering:auto;shape-rendering:auto;text-rendering:auto;enable-background:accumulate"
     d="m 4.2324219,1.3222656 a 0.26464845,0.26464845 0 1 0 0,0.5292969 C 5.3033196,1.8515612 6.2679165,2.4969489 6.6777344,3.4863281 7.0875525,4.4757119 6.8607584,5.6118992 6.1035156,6.3691406 5.3462755,7.1263812 4.2100855,7.3531746 3.2207031,6.9433594 2.2313192,6.5335432 1.5878886,5.5689483 1.5878906,4.4980469 a 0.2646484,0.2646484 0 1 0 -0.5292968,0 c -2.5e-6,1.28341 0.7732681,2.442454 1.9589843,2.9335937 1.1857144,0.4911386 2.5534315,0.2200067 3.4609375,-0.6875 C 7.3860249,5.836633 7.6571577,4.4689192 7.1660156,3.2832031 6.6748739,2.0974925 5.5158274,1.3222641 4.2324219,1.3222656 Z"
     id="path7994"
     inkscape:connector-curvature="0" />
  <path
     inkscape:connector-curvature="0"
     id="path7996"
     d="M 4.2332975,0.794 V 1.05858 2.11691 2.3815 H 3.9687142 C 3.9164802,2.38149 3.8654129,2.366 3.8219524,2.3371 l -0.79375,-0.52916 c -0.157054,-0.10475 -0.157054,-0.33554 0,-0.44028 l 0.79375,-0.52917 c 0.043461,-0.029 0.094528,-0.0444 0.1467618,-0.0444 h 0.0031 z"
     style="color:#000000;font-style:normal;font-variant:normal;font-weight:normal;font-stretch:normal;font-size:medium;line-height:normal;font-family:sans-serif;font-variant-ligatures:normal;font-variant-position:normal;font-variant-caps:normal;font-variant-numeric:normal;font-variant-alternates:normal;font-feature-settings:normal;text-indent:0;text-align:start;text-decoration:none;text-decoration-line:none;text-decoration-style:solid;text-decoration-color:#000000;letter-spacing:normal;word-spacing:normal;text-transform:none;writing-mode:lr-tb;direction:ltr;text-orientation:mixed;dominant-baseline:auto;baseline-shift:baseline;text-anchor:start;white-space:normal;shape-padding:0;clip-rule:nonzero;display:inline;overflow:visible;visibility:visible;opacity:1;isolation:auto;mix-blend-mode:normal;color-interpolation:sRGB;color-interpolation-filters:linearRGB;solid-color:#000000;solid-opacity:1;vector-effect:none;fill:#2e3436;fill-opacity:1;fill-rule:evenodd;stroke:none;stroke-width:0.52916664;stroke-linecap:butt;stroke-linejoin:round;stroke-miterlimit:4;stroke-dasharray:none;stroke-dashoffset:0;stroke-opacity:1;color-rendering:auto;image-rendering:auto;shape-rendering:auto;text-rendering:auto;enable-background:accumulate" />
  <path
     inkscape:connector-curvature="0"
     d="m 2.6458333,5.8208334 h 1.400175 v -0.4699 h -0.42545 V 3.6173835 h -0.327025 l -0.758825,0.4381499 0.206375,0.3937 0.3302,-0.17145 v 1.07315 h -0.42545 z"
     style="font-style:normal;font-variant:normal;font-weight:800;font-stretch:normal;font-size:3.17499995px;line-height:1.25;font-family:Cantarell;-inkscape-font-specification:'Cantarell Ultra-Bold';text-align:end;letter-spacing:0px;word-spacing:0px;text-anchor:end;fill:#2e3436;fill-opacity:1;stroke:none;stroke-width:0.26458335"
     id="path5132" />
  <path
     inkscape:connector-curvature="0"
     d="m 5.0778791,5.8525834 c 0.5588,0 0.936625,-0.4572 0.936625,-1.146175 0,-0.6731 -0.371475,-1.1207749 -0.92075,-1.1207749 -0.561975,0 -0.9398,0.4571999 -0.9398,1.1429999 0,0.6731 0.371475,1.12395 0.923925,1.12395 z m 0.0127,-0.4699 c -0.225425,0 -0.371475,-0.269875 -0.371475,-0.6731 0,-0.3937 0.14605,-0.65405 0.36195,-0.65405 0.219075,0 0.3683,0.269875 0.3683,0.676275 0,0.390525 -0.14605,0.650875 -0.358775,0.650875 z"
     style="font-style:normal;font-variant:normal;font-weight:800;font-stretch:normal;font-size:3.17499995px;line-height:1.25;font-family:Cantarell;-inkscape-font-specification:'Cantarell Ultra-Bold';text-align:end;letter-spacing:0px;word-spacing:0px;text-anchor:end;fill:#2e3436;fill-opacity:1;stroke:none;stroke-width:0.26458335"
     id="path5134" />
</svg>
